<svg id="OBJECTS" xmlns="http://www.w3.org/2000/svg" xmlns:xlink="http://www.w3.org/1999/xlink" viewBox="0 0 149.254 114.6"><defs><style>.cls-1{fill:none;}.cls-2{fill:#f5cb5c;}.cls-3{fill:#404040;}.cls-4{fill:#ffba00;}.cls-5{fill:url(#linear-gradient);}.cls-6{fill:url(#linear-gradient-2);}</style><linearGradient id="linear-gradient" x1="209.091" y1="403.412" x2="209.091" y2="417.941" gradientUnits="userSpaceOnUse"><stop offset="0" stop-color="#ffd42b"/><stop offset="1" stop-color="#ffba00"/></linearGradient><linearGradient id="linear-gradient-2" x1="75.774" y1="403.412" x2="75.774" y2="417.941" xlink:href="#linear-gradient"/></defs><title>car-front</title><path class="cls-1" d="M169.058,395.5c-0.75-2.25-4-4-7.25-4h-38.75c-3.25,0-6.5,1.75-7.25,4-0.513,1.54.906,6.363,2.253,9.794a18.317,18.317,0,0,0,1.622,3.4c1.25,1.682,2.625,2.1,6.625,2.1h32.25c4,0,5.375-.417,6.625-2.1a18.317,18.317,0,0,0,1.622-3.4C168.152,401.863,169.571,397.04,169.058,395.5Z" transform="translate(-67.806 -333.834)"/><path class="cls-1" d="M90.141,369.5H194.725a1.9,1.9,0,0,0,2.172-2.03,4.209,4.209,0,0,0-.172-1.136c-0.625-2.167-6.625-17.459-8.375-21.084s-4.125-4.875-5.875-4.875H102.391c-1.75,0-4.125,1.25-5.875,4.875s-7.75,18.917-8.375,21.084a4.212,4.212,0,0,0-.171,1.134A1.9,1.9,0,0,0,90.141,369.5Z" transform="translate(-67.806 -333.834)"/><path class="cls-2" d="M210.206,363.065c-4.068-1.185-6.854.884-6.854,4.884a6.023,6.023,0,0,0,.05.77,3.292,3.292,0,0,1-1.086,2.2c-0.117-.224-0.233-0.447-0.342-0.664C199.85,366,192.016,346,190.1,342.5a15.785,15.785,0,0,0-11-7.812c-5-.75-27.083-0.854-36.667-0.854s-31.667.1-36.667,0.854a15.785,15.785,0,0,0-11,7.813c-1.917,3.5-9.75,23.5-11.875,27.75-0.109.217-.225,0.44-0.342,0.665a3.292,3.292,0,0,1-1.086-2.2,6.018,6.018,0,0,0,.05-0.77c0-4-2.787-6.068-6.854-4.884-2.8.816-6.751,3.262-6.851,5.25-0.1,2.017,2.745,3.968,5.58,4.685a7.794,7.794,0,0,0,5.12-.327h0.008a3.372,3.372,0,0,1,2.926.281c-2.1,3.775-4.7,8.172-5.3,12.171-0.38,2.536-.5,11.406-0.369,20.169l0,0.17q0.011,0.692.024,1.381c0,0.069,0,.137,0,0.206q0.013,0.682.028,1.36c0,0.1,0,.2.007,0.3l0,0.135c0.009,0.376.018,0.753,0.028,1.125,0,0.113.006,0.223,0.009,0.335,0.011,0.4.022,0.8,0.034,1.2,0,0.127.008,0.251,0.012,0.377,0.012,0.379.024,0.757,0.038,1.129,0,0.129.01,0.254,0.014,0.382,0.013,0.358.027,0.714,0.041,1.063,0.006,0.157.013,0.309,0.02,0.464,0.013,0.315.027,0.631,0.041,0.938,0.008,0.167.016,0.327,0.024,0.491,0.014,0.285.028,0.571,0.043,0.847,0.01,0.184.02,0.357,0.03,0.537,0.014,0.245.027,0.493,0.042,0.729,0.012,0.194.025,0.377,0.037,0.565,0.014,0.21.027,0.426,0.042,0.628s0.028,0.37.042,0.554,0.028,0.373.042,0.549c0.016,0.194.033,0.372,0.05,0.556,0.013,0.149.027,0.306,0.04,0.448,0.018,0.189.038,0.36,0.057,0.537,0.013,0.12.026,0.25,0.039,0.363,0.021,0.182.044,0.343,0.066,0.508,0.012,0.09.024,0.19,0.036,0.275,0.024,0.169.05,0.315,0.076,0.462,0.011,0.063.021,0.138,0.032,0.2,0.037,0.2.075,0.373,0.114,0.524,1.25,4.875,5.875,7.875,9.5,7.875H198.475c3.625,0,8.25-3,9.5-7.875,0.039-.151.077-0.327,0.114-0.524,0.011-.059.021-0.134,0.032-0.2,0.025-.148.051-0.294,0.076-0.462,0.012-.085.024-0.185,0.036-0.275,0.022-.165.044-0.326,0.066-0.508,0.013-.114.026-0.243,0.039-0.363,0.019-.176.039-0.347,0.057-0.537,0.014-.142.027-0.3,0.04-0.448,0.017-.184.034-0.362,0.05-0.556,0.015-.176.028-0.365,0.042-0.549s0.029-.362.042-0.554,0.028-.417.042-0.628c0.012-.188.025-0.37,0.037-0.565,0.015-.236.028-0.484,0.042-0.729,0.01-.179.021-0.353,0.03-0.537,0.015-.276.029-0.562,0.043-0.847,0.008-.164.017-0.324,0.024-0.491,0.014-.306.028-0.622,0.041-0.938,0.007-.155.014-0.307,0.02-0.464,0.013-.329.026-0.665,0.038-1,0.006-.152.012-0.3,0.017-0.456,0.013-.361.025-0.729,0.037-1.1,0-.132.009-0.261,0.013-0.394,0.012-.395.023-0.794,0.034-1.2,0-.112.006-0.223,0.009-0.336,0.01-.372.019-0.748,0.028-1.124l0-.071c0-.129.006-0.257,0.009-0.386,0.009-.4.017-0.795,0.025-1.194,0-.131.005-0.262,0.008-0.394q0.011-.594.02-1.191,0-.159.005-0.318c0.134-8.763.011-17.633-.369-20.169-0.6-4-3.2-8.4-5.3-12.171a3.372,3.372,0,0,1,2.926-.281h0.008a7.794,7.794,0,0,0,5.12.327c2.835-.718,5.681-2.669,5.58-4.685C216.958,366.326,213.01,363.881,210.206,363.065ZM88.141,366.334c0.625-2.167,6.625-17.459,8.375-21.084s4.125-4.875,5.875-4.875h80.084c1.75,0,4.125,1.25,5.875,4.875s7.75,18.917,8.375,21.084a4.209,4.209,0,0,1,.172,1.136,1.9,1.9,0,0,1-2.172,2.03H90.141a1.9,1.9,0,0,1-2.171-2.032A4.212,4.212,0,0,1,88.141,366.334Zm-6.93,18.041a129.581,129.581,0,0,0,27.75,7.125s-5.5,6.875-8.25,6.875H84.836c-2.5,0-3.125-1.5-3.625-2.875S80.461,386.875,81.211,384.375Zm83.972,24.318c-1.25,1.682-2.625,2.1-6.625,2.1h-32.25c-4,0-5.375-.417-6.625-2.1a18.317,18.317,0,0,1-1.622-3.4c-1.348-3.431-2.767-8.254-2.253-9.794,0.75-2.25,4-4,7.25-4h38.75c3.25,0,6.5,1.75,7.25,4,0.513,1.54-.906,6.363-2.253,9.794A18.317,18.317,0,0,1,165.183,408.693ZM203.654,395.5c-0.5,1.375-1.125,2.875-3.625,2.875H184.154c-2.75,0-8.25-6.875-8.25-6.875a129.581,129.581,0,0,0,27.75-7.125C204.4,386.875,204.154,394.125,203.654,395.5Z" transform="translate(-67.806 -333.834)"/><path class="cls-3" d="M208.987,410.308c-0.011.4-.022,0.8-0.034,1.2,0,0.133-.009.262-0.013,0.394-0.012.369-.024,0.737-0.037,1.1-0.005.154-.011,0.3-0.017,0.456-0.013.337-.025,0.673-0.038,1-0.006.157-.013,0.309-0.02,0.464-0.013.315-.027,0.631-0.041,0.938-0.008.167-.016,0.327-0.024,0.491-0.014.285-.028,0.571-0.043,0.847-0.01.184-.02,0.357-0.03,0.537-0.014.245-.027,0.493-0.042,0.729-0.012.194-.025,0.377-0.037,0.565-0.014.21-.027,0.426-0.042,0.628s-0.028.37-.042,0.554-0.028.373-.042,0.549c-0.016.194-.033,0.372-0.05,0.556-0.013.149-.027,0.306-0.04,0.448-0.018.189-.038,0.36-0.057,0.537-0.013.12-.026,0.25-0.039,0.363-0.021.182-.044,0.343-0.066,0.508-0.012.09-.024,0.19-0.036,0.275-0.025.169-.05,0.315-0.076,0.462-0.011.063-.021,0.138-0.032,0.2-0.037.2-.075,0.373-0.114,0.524-1.25,4.875-5.875,7.875-9.5,7.875H192v12.421a3.513,3.513,0,0,0,3.512,3.513h10.976A3.513,3.513,0,0,0,210,444.921V411.262a3.492,3.492,0,0,0-.971-2.413c-0.009.376-.018,0.752-0.028,1.124C208.993,410.085,208.99,410.2,208.987,410.308Z" transform="translate(-67.806 -333.834)"/><path class="cls-3" d="M76.892,424.625c-0.039-.151-0.077-0.327-0.114-0.524-0.011-.059-0.021-0.134-0.032-0.2-0.025-.148-0.051-0.294-0.076-0.462-0.012-.085-0.024-0.185-0.036-0.275-0.022-.165-0.044-0.326-0.066-0.508-0.013-.114-0.026-0.243-0.039-0.363-0.019-.176-0.039-0.347-0.057-0.537-0.014-.142-0.027-0.3-0.04-0.448-0.017-.184-0.034-0.362-0.05-0.556-0.015-.176-0.028-0.365-0.042-0.549s-0.029-.362-0.042-0.554-0.028-.417-0.042-0.628c-0.012-.188-0.025-0.37-0.037-0.565-0.015-.236-0.028-0.484-0.042-0.729-0.01-.179-0.021-0.353-0.03-0.537-0.015-.276-0.029-0.562-0.043-0.847-0.008-.164-0.016-0.324-0.024-0.491-0.014-.306-0.028-0.622-0.041-0.938-0.007-.155-0.014-0.307-0.02-0.464-0.014-.348-0.028-0.705-0.041-1.063,0-.128-0.01-0.253-0.014-0.382-0.013-.371-0.026-0.749-0.038-1.129,0-.126-0.008-0.25-0.012-0.377-0.012-.395-0.023-0.794-0.034-1.2,0-.112-0.006-0.223-0.009-0.335-0.01-.372-0.019-0.748-0.028-1.125a3.492,3.492,0,0,0-.971,2.413v33.659a3.513,3.513,0,0,0,3.512,3.513H89.358a3.513,3.513,0,0,0,3.512-3.513V432.5H86.392C82.767,432.5,78.142,429.5,76.892,424.625Z" transform="translate(-67.806 -333.834)"/><path class="cls-4" d="M209,409.972c0.01-.372.019-0.748,0.028-1.124l0-.071,0,0.071C209.015,409.224,209.006,409.6,209,409.972Z" transform="translate(-67.806 -333.834)"/><path class="cls-4" d="M75.842,408.848l0-.135,0,0.135c0.009,0.377.018,0.752,0.028,1.125C75.86,409.6,75.851,409.224,75.842,408.848Z" transform="translate(-67.806 -333.834)"/><path class="cls-5" d="M209.094,405.294h0q0,0.159-.005.318C209.09,405.506,209.092,405.4,209.094,405.294Z" transform="translate(-67.806 -333.834)"/><path class="cls-6" d="M75.773,405.294c0,0.057,0,.113,0,0.17l0-.17h0Z" transform="translate(-67.806 -333.834)"/></svg>