<svg id="OBJECTS" xmlns="http://www.w3.org/2000/svg" viewBox="0 0 312.667 117.178"><defs><style>.cls-1{fill:none;}.cls-2{fill:#f5cb5c;}.cls-3{fill:#f09400;}.cls-4{fill:#ff8b00;}.cls-5{fill:#404040;}.cls-6{fill:#474747;}.cls-7{fill:#d4085e;}</style></defs><title>car-side</title><path class="cls-1" d="M199.667,97.508c3.083,0.167,63.083-2.166,65.917-2.208s3.666-1.709,4.166-3.625,4-19.417,4.167-20.917,0.166-2.917-2.417-2.917-22.5.75-33.667,4.333-26,11.417-38.167,20.917C198.208,94.23,196.583,97.342,199.667,97.508Z" transform="translate(-93.667 -59.33)"/><path class="cls-1" d="M284.5,67.842a2.885,2.885,0,0,0-3.166,3.083s-0.75,19.833-.75,20.833A2.437,2.437,0,0,0,283,94.425c1.535,0,40.748-.908,57.59-1.313l0.631-.015c3.839-.092,6.391-0.156,6.864-0.172,2.5-.083,3.666-0.917,3.25-2.667s-14-18.25-25.168-21.167a39.553,39.553,0,0,0-4.992-.9c-0.274-.034-0.558-0.065-0.84-0.1C307.166,66.624,285.711,67.842,284.5,67.842Z" transform="translate(-93.667 -59.33)"/><path class="cls-2" d="M400.352,122.508c0-.056-0.018-0.11-0.018-0.167V103.008c0-1.435-3.715-5.1-9.338-9.667h0c-0.315-.256-0.64-0.516-0.966-0.778q-0.376-.3-0.763-0.607c-0.341-.27-0.686-0.542-1.038-0.817l-0.652-.507q-0.548-.424-1.112-0.855l-0.547-.418q-0.811-.616-1.651-1.243l-0.526-.39q-0.661-.491-1.336-0.986l-0.556-.407q-0.916-.669-1.853-1.343l-0.056-.04q-0.961-.69-1.942-1.382l-0.207-.146q-0.966-.681-1.946-1.362l-0.135-.093q-0.991-.687-1.994-1.371l-0.059-.041q-0.967-.659-1.942-1.313l-0.332-.223q-0.933-.624-1.869-1.241l-0.362-.238q-0.948-.623-1.9-1.237l-0.236-.152q-0.885-.571-1.767-1.13l-0.322-.2q-0.911-.576-1.815-1.138l-0.431-.268q-0.893-.553-1.777-1.09l-0.39-.236q-0.892-.539-1.771-1.061l-0.081-.048c-7.192-4.253-13.642-7.487-17.669-8.471-14.333-3.5-77.167-3.833-94-2.333-6.757.6-16.63,3.839-27.5,8.583H219.49S194.25,78.842,171.167,96.342c-24.5,0-50.833,6.155-62.333,13.078a31.924,31.924,0,0,0-7.447,6.2h-0.007c-0.021.023-.04,0.047-0.06,0.07-0.119.135-.231,0.273-0.347,0.409a32.83,32.83,0,0,0-4.321,6.53H96.634c-0.055.11-.1,0.217-0.151,0.327-0.2.407-.382,0.808-0.558,1.208-0.088.2-.181,0.4-0.264,0.6-0.2.475-.373,0.939-0.539,1.4-0.046.128-.1,0.258-0.142,0.385-0.181.525-.339,1.034-0.48,1.531-0.018.063-.041,0.129-0.058,0.192-0.155.563-.289,1.109-0.395,1.626l0,0.021c-0.084.408-.153,0.8-0.208,1.175-0.017.117-.025,0.221-0.039,0.335-0.033.26-.068,0.522-0.087,0.761-0.028.349-.043,0.679-0.043,0.981v16.333a5.164,5.164,0,0,0,.047.657c0,0.035.013,0.075,0.018,0.11,0.031,0.211.069,0.43,0.123,0.661,0,0.018.01,0.036,0.014,0.054a12.008,12.008,0,0,0,.539,1.684h0c1.258,3.164,4.064,6.833,7.926,6.833h25.1a30.505,30.505,0,1,1,59.049-3.667H323.519a30.5,30.5,0,1,1,60.03-.386c5.485-.908,13.345-3.321,17.284-5.947,5-3.333,5.5-4.167,5.5-6.333V130.008C406.334,128.041,400.54,125.909,400.352,122.508ZM271.5,67.842c2.583,0,2.584,1.417,2.417,2.917s-3.667,19-4.167,20.917-1.333,3.583-4.166,3.625-62.834,2.375-65.917,2.208-1.458-3.278,0-4.417c12.167-9.5,27-17.333,38.167-20.917S268.917,67.842,271.5,67.842Zm54.666,1.25c11.167,2.917,24.751,19.417,25.168,21.167s-0.75,2.583-3.25,2.667c-0.472.016-3.025,0.079-6.864,0.172l-0.631.015c-16.842.4-56.054,1.313-57.59,1.313a2.437,2.437,0,0,1-2.416-2.667c0-1,.75-20.833.75-20.833a2.885,2.885,0,0,1,3.166-3.083c1.211,0,22.666-1.218,35.834.256,0.282,0.031.566,0.062,0.84,0.1A39.553,39.553,0,0,1,326.166,69.092ZM115.583,125.925H101.417c-2.268,0-2.907-1.76-2.5-3.423,0.027-.109.044-0.219,0.08-0.327,0.583-1.75,3.583-5.417,3.583-5.417,12.667-3.75,25.583-5.417,26.583-4.833s-2.5,5.083-4.833,7.833c-0.372.438-.793,0.893-1.242,1.348C120.718,123.51,117.475,125.925,115.583,125.925Z" transform="translate(-93.667 -59.33)"/><path class="cls-3" d="M100.972,116.1h0c0.116-.136.228-0.274,0.347-0.409C101.2,115.83,101.088,115.967,100.972,116.1Z" transform="translate(-93.667 -59.33)"/><path class="cls-4" d="M383.55,155.456h0l-0.013,0Z" transform="translate(-93.667 -59.33)"/><path class="cls-5" d="M156.5,124.008a26.249,26.249,0,1,0,26.25,26.25A26.25,26.25,0,0,0,156.5,124.008Z" transform="translate(-93.667 -59.33)"/><path class="cls-5" d="M353.5,124.008a26.249,26.249,0,1,0,26.25,26.25A26.25,26.25,0,0,0,353.5,124.008Z" transform="translate(-93.667 -59.33)"/><polygon class="cls-5" points="0.741 93.345 0.741 93.345 0.741 93.344 0.741 93.345"/><path class="cls-6" d="M358.67,70.979h0l0.081,0.048Z" transform="translate(-93.667 -59.33)"/><path class="cls-7" d="M400.352,122.508c0-.056-0.018-0.109-0.018-0.167,0,0.057.014,0.11,0.018,0.167h0Z" transform="translate(-93.667 -59.33)"/></svg>