<svg id="OBJECTS" xmlns="http://www.w3.org/2000/svg" xmlns:xlink="http://www.w3.org/1999/xlink" viewBox="0 0 149.253 114.6"><defs><style>.cls-1{fill:none;}.cls-2{fill:#404040;}.cls-3{fill:#f5cb5c;}.cls-4{fill:#ffba00;}.cls-5{fill:url(#linear-gradient);}.cls-6{fill:url(#linear-gradient-2);}.cls-7{fill:#f09400;}.cls-8{fill:url(#linear-gradient-3);}.cls-9{fill:url(#linear-gradient-4);}</style><linearGradient id="linear-gradient" x1="417.281" y1="383.081" x2="417.281" y2="370.079" gradientUnits="userSpaceOnUse"><stop offset="0" stop-color="#ffd42b"/><stop offset="1" stop-color="#ffba00"/></linearGradient><linearGradient id="linear-gradient-2" x1="297.854" y1="383.081" x2="297.854" y2="370.079" xlink:href="#linear-gradient"/><linearGradient id="linear-gradient-3" x1="417.518" y1="383.081" x2="417.518" y2="370.079" xlink:href="#linear-gradient"/><linearGradient id="linear-gradient-4" x1="297.615" y1="383.081" x2="297.615" y2="370.079" xlink:href="#linear-gradient"/></defs><title>car-back</title><path class="cls-1" d="M304.959,410.713h19.227a2.012,2.012,0,0,0,0-4.023H304.959A2.012,2.012,0,1,0,304.959,410.713Z" transform="translate(-282.941 -333.834)"/><path class="cls-1" d="M302.848,393.463c1.125-.312,8.75-1.812,12.313-2.437a15.5,15.5,0,0,0,6.625-2.437,30.911,30.911,0,0,0,5.5-6.5c0.75-1.5.125-2.375-.75-2.481l-1.013-.117c-4.726-.545-24.174-2.777-24.174-2.777a1.609,1.609,0,0,0-1.75,1.719c0,0.124,0,.5.009,1.059,0.032,2.923.146,10.714,0.3,11.66C300.1,392.275,301.723,393.775,302.848,393.463Z" transform="translate(-282.941 -333.834)"/><path class="cls-1" d="M413.787,376.713s-19.448,2.233-24.174,2.777l-1.013.117c-0.875.106-1.5,0.981-.75,2.481a30.911,30.911,0,0,0,5.5,6.5,15.5,15.5,0,0,0,6.625,2.438c3.563,0.625,11.188,2.125,12.313,2.438s2.75-1.187,2.938-2.312c0.158-.946.271-8.738,0.3-11.66,0.006-.554.009-0.934,0.009-1.059A1.609,1.609,0,0,0,413.787,376.713Z" transform="translate(-282.941 -333.834)"/><path class="cls-1" d="M410.176,406.69H390.948a2.012,2.012,0,0,0,0,4.023h19.228a2.011,2.011,0,0,0,2.012-2.012A2.037,2.037,0,0,0,410.176,406.69Z" transform="translate(-282.941 -333.834)"/><path class="cls-1" d="M313.692,365.171h87.75a4.447,4.447,0,0,0,3.747-1.583,2.954,2.954,0,0,0,.326-0.554,2.7,2.7,0,0,0,.2-1.7c-0.4-1.75-5.646-18.334-16.4-18.334h-63.5c-10.75,0-16,16.584-16.4,18.334a2.7,2.7,0,0,0,.2,1.7,2.954,2.954,0,0,0,.326.554A4.447,4.447,0,0,0,313.692,365.171Z" transform="translate(-282.941 -333.834)"/><path class="cls-2" d="M394.316,424.588h-73.5a4.836,4.836,0,0,0-4.141,2.545l-0.71,1.583a2.99,2.99,0,0,0,2.854,2.122h77.494a2.99,2.99,0,0,0,2.853-2.119l-0.711-1.587A4.833,4.833,0,0,0,394.316,424.588Z" transform="translate(-282.941 -333.834)"/><path class="cls-3" d="M425.341,363.065c-4.067-1.185-6.854.884-6.854,4.884a6.013,6.013,0,0,0,.05.772,3.292,3.292,0,0,1-1.084,2.193c0.045,0.087.087,0.171,0.134,0.259l-0.135-.258c-0.117-.224-0.233-0.447-0.341-0.664-0.071-.142-0.15-0.3-0.233-0.481l-0.087-.188c-0.059-.127-0.12-0.256-0.184-0.4l-0.111-.246c-0.062-.137-0.125-0.277-0.191-0.425l-0.132-.3-0.2-.466-0.14-.322L415.6,366.9l-0.151-.352-0.223-.523-0.181-.426-0.132-.312c-0.175-.415-0.36-0.854-0.545-1.294-3.183-7.594-7.734-18.939-9.133-21.495a15.786,15.786,0,0,0-11-7.812c-5-.75-27.084-0.854-36.667-0.854s-31.667.1-36.667,0.854a15.786,15.786,0,0,0-11,7.813c-1.405,2.567-5.992,14-9.177,21.6-0.159.379-.319,0.76-0.471,1.12l-0.163.385-0.18.424-0.223.523-0.151.352-0.226.524-0.14.322-0.2.466-0.132.3c-0.066.148-.129,0.288-0.191,0.425l-0.111.246c-0.065.141-.125,0.271-0.184,0.4l-0.087.188c-0.083.176-.162,0.339-0.233,0.481-0.109.217-.224,0.44-0.342,0.664l-0.138.263c0.047-.09.09-0.176,0.137-0.264a3.293,3.293,0,0,1-1.084-2.194,6.016,6.016,0,0,0,.05-0.771c0-4-2.787-6.068-6.855-4.884-2.8.816-6.75,3.262-6.85,5.25-0.1,2.017,2.744,3.968,5.579,4.685a7.794,7.794,0,0,0,5.12-.327h0.008a3.372,3.372,0,0,1,2.926.281q0.254-.456.5-0.9-0.242.443-.5,0.9h0c-1.136,2.039-2.407,4.26-3.439,6.5l-0.017.036h0a21.56,21.56,0,0,0-1.846,5.635c-0.432,2.881-.532,13.937-0.3,23.724,0.034,1.455.077,2.872,0.127,4.239h0c0,0.042,0,.08,0,0.121,0.024,0.651.05,1.282,0.077,1.9,0.007,0.159.013,0.326,0.02,0.483,0.035,0.761.072,1.5,0.112,2.2l0,0.058q0.067,1.177.145,2.21c0.008,0.109.016,0.217,0.025,0.323,0.014,0.183.029,0.364,0.044,0.538s0.028,0.319.042,0.474q0.028,0.308.058,0.6c0.016,0.159.033,0.314,0.049,0.462,0.012,0.107.024,0.213,0.036,0.315,0.025,0.211.051,0.412,0.078,0.6,0.007,0.053.015,0.1,0.023,0.152,0.026,0.173.052,0.334,0.079,0.484,0.01,0.053.019,0.106,0.029,0.156,0.033,0.17.066,0.329,0.1,0.463,1.25,4.875,5.875,7.875,9.5,7.875H311.4a4.685,4.685,0,0,0,3.949-2.408l0.617-1.376,0.71-1.583a4.836,4.836,0,0,1,4.141-2.545h73.5a4.833,4.833,0,0,1,4.141,2.545l0.711,1.587,0.674,1.505a4.679,4.679,0,0,0,3.875,2.275h9.893c3.625,0,8.25-3,9.5-7.875,0.034-.134.068-0.293,0.1-0.463,0.01-.05.019-0.1,0.029-0.156,0.027-.15.053-0.311,0.079-0.484,0.008-.05.015-0.1,0.022-0.15,0.027-.189.053-0.393,0.078-0.606,0.012-.1.024-0.2,0.035-0.3,0.017-.153.034-0.312,0.051-0.475q0.029-.285.057-0.59c0.014-.156.029-0.311,0.042-0.474s0.029-.355.044-0.538c0.008-.1.016-0.211,0.024-0.318,0.052-.689.1-1.429,0.145-2.215l0-.058c0.04-.7.077-1.441,0.112-2.2,0.007-.143.012-0.3,0.018-0.44,0.028-.632.054-1.275,0.078-1.938,0-.041,0-0.079,0-0.121h0c0.049-1.366.092-2.784,0.127-4.239,0.232-9.787.133-20.843-.3-23.724a21.56,21.56,0,0,0-1.846-5.635h0L422,379.457c-1.032-2.242-2.3-4.464-3.44-6.5h0q-0.256-.46-0.5-0.907,0.244,0.446.5,0.906a3.374,3.374,0,0,1,2.926-.281h0.007a7.793,7.793,0,0,0,5.12.327c2.836-.718,5.682-2.669,5.58-4.685C432.092,366.326,428.144,363.881,425.341,363.065ZM412.188,408.7a2.011,2.011,0,0,1-2.012,2.012H390.948a2.012,2.012,0,0,1,0-4.023h19.228A2.037,2.037,0,0,1,412.188,408.7ZM299.6,378.432a1.609,1.609,0,0,1,1.75-1.719s19.448,2.233,24.174,2.777l1.013,0.117c0.875,0.106,1.5.981,0.75,2.481a30.911,30.911,0,0,1-5.5,6.5,15.5,15.5,0,0,1-6.625,2.438c-3.562.625-11.187,2.125-12.312,2.438s-2.75-1.187-2.937-2.312c-0.158-.946-0.271-8.738-0.3-11.66C299.6,378.937,299.6,378.556,299.6,378.432Zm73.22,15.441h-30.5v-10.16h30.5v10.16ZM303.2,407.75a2,2,0,0,1,1.763-1.06h19.227a2.012,2.012,0,0,1,0,4.023H304.959a2.011,2.011,0,0,1-2.012-2.012A1.989,1.989,0,0,1,303.2,407.75Zm112.331-28.26c-0.032,2.923-.146,10.714-0.3,11.66-0.187,1.125-1.812,2.625-2.937,2.313s-8.75-1.812-12.312-2.437a15.5,15.5,0,0,1-6.625-2.437,30.911,30.911,0,0,1-5.5-6.5c-0.75-1.5-.125-2.375.75-2.481l1.013-.117c4.726-.545,24.174-2.777,24.174-2.777a1.609,1.609,0,0,1,1.75,1.719C415.537,378.556,415.534,378.937,415.528,379.49ZM309.422,361.338c0.4-1.75,5.646-18.334,16.4-18.334h63.5c10.75,0,16,16.584,16.4,18.334a2.7,2.7,0,0,1-.2,1.7q0.133,0.27.279,0.554H405.19a4.447,4.447,0,0,1-3.747,1.583h-87.75a4.447,4.447,0,0,1-3.747-1.583H309.34q0.147-.284.279-0.554A2.7,2.7,0,0,1,309.422,361.338Z" transform="translate(-282.941 -333.834)"/><path class="cls-2" d="M424.033,413.088c0,0.041,0,.079,0,0.121-0.024.664-.05,1.307-0.078,1.938-0.006.145-.012,0.3-0.018,0.44-0.035.763-.072,1.5-0.112,2.2l0,0.058c-0.045.786-.094,1.526-0.145,2.215-0.008.107-.016,0.214-0.024,0.318-0.014.183-.029,0.364-0.044,0.538s-0.028.319-.042,0.474q-0.028.3-.057,0.59c-0.017.163-.033,0.323-0.051,0.475-0.012.1-.023,0.206-0.035,0.3-0.026.213-.052,0.417-0.078,0.606-0.007.052-.015,0.1-0.022,0.15-0.026.173-.052,0.334-0.079,0.484-0.01.053-.019,0.106-0.029,0.156-0.033.17-.066,0.329-0.1,0.463-1.25,4.875-5.875,7.875-9.5,7.875H407.13v12.421a3.513,3.513,0,0,0,3.513,3.513h10.975a3.513,3.513,0,0,0,3.513-3.513V411.262a3.491,3.491,0,0,0-.971-2.413c-0.034,1.455-.077,2.872-0.127,4.239h0Z" transform="translate(-282.941 -333.834)"/><path class="cls-2" d="M292.025,424.625c-0.034-.134-0.068-0.293-0.1-0.463-0.01-.05-0.019-0.1-0.029-0.156-0.027-.15-0.053-0.311-0.079-0.484-0.008-.051-0.015-0.1-0.023-0.152-0.027-.187-0.052-0.389-0.078-0.6-0.012-.1-0.024-0.208-0.036-0.315-0.017-.149-0.033-0.3-0.049-0.462q-0.029-.288-0.058-0.6c-0.014-.156-0.029-0.311-0.042-0.474s-0.029-.355-0.044-0.538c-0.008-.106-0.016-0.215-0.025-0.323-0.052-.687-0.1-1.426-0.145-2.21l0-.058c-0.04-.7-0.077-1.437-0.112-2.2-0.007-.157-0.013-0.323-0.02-0.483-0.027-.62-0.053-1.251-0.077-1.9,0-.042,0-0.08,0-0.121h0c-0.049-1.366-.092-2.784-0.127-4.239a3.491,3.491,0,0,0-.971,2.413v33.659a3.513,3.513,0,0,0,3.513,3.513h10.975A3.513,3.513,0,0,0,308,444.921V432.5h-6.479C297.9,432.5,293.275,429.5,292.025,424.625Z" transform="translate(-282.941 -333.834)"/><path class="cls-4" d="M405.8,363.588q-0.147-.284-0.279-0.554a2.954,2.954,0,0,1-.326.554H405.8Z" transform="translate(-282.941 -333.834)"/><path class="cls-4" d="M309.945,363.588a2.954,2.954,0,0,1-.326-0.554q-0.133.27-.279,0.554h0.605Z" transform="translate(-282.941 -333.834)"/><path class="cls-4" d="M418.557,372.954h0q-0.256-.46-0.5-0.906Q418.3,372.494,418.557,372.954Z" transform="translate(-282.941 -333.834)"/><path class="cls-4" d="M297.073,372.055q-0.242.443-.5,0.9h0Q296.831,372.5,297.073,372.055Z" transform="translate(-282.941 -333.834)"/><path class="cls-4" d="M291.318,417.85c0.045,0.784.093,1.522,0.145,2.21Q291.386,419.028,291.318,417.85Z" transform="translate(-282.941 -333.834)"/><path class="cls-5" d="M417.452,370.913c-0.116-.223-0.235-0.447-0.343-0.663,0.109,0.217.224,0.44,0.341,0.664h0Z" transform="translate(-282.941 -333.834)"/><path class="cls-6" d="M298.025,370.25c-0.108.216-.227,0.441-0.343,0.663h0C297.8,370.69,297.917,370.467,298.025,370.25Z" transform="translate(-282.941 -333.834)"/><path class="cls-7" d="M417.586,371.172c-0.047-.088-0.089-0.172-0.134-0.259h0Z" transform="translate(-282.941 -333.834)"/><path class="cls-8" d="M417.586,371.172c-0.047-.088-0.089-0.172-0.134-0.259h0Z" transform="translate(-282.941 -333.834)"/><path class="cls-7" d="M297.684,370.914h0c-0.046.089-.089,0.175-0.137,0.264Z" transform="translate(-282.941 -333.834)"/><path class="cls-9" d="M297.684,370.914h0c-0.046.089-.089,0.175-0.137,0.264Z" transform="translate(-282.941 -333.834)"/></svg>